<svg xmlns="http://www.w3.org/2000/svg" width="25" height="25" viewBox="0 0 25 25" fill="none">
<path d="M5.20834 13.2913C5.20834 11.8769 5.20834 11.1698 5.49424 10.5482C5.78014 9.92656 6.31706 9.46634 7.3909 8.54591L8.43256 7.65305C10.3735 5.98937 11.344 5.15754 12.5 5.15754C13.656 5.15754 14.6265 5.98937 16.5675 7.65305L17.6091 8.54591C18.683 9.46634 19.2199 9.92656 19.5058 10.5482C19.7917 11.1698 19.7917 11.8769 19.7917 13.2913V17.7083C19.7917 19.6725 19.7917 20.6546 19.1815 21.2648C18.5713 21.875 17.5892 21.875 15.625 21.875H9.37501C7.41082 21.875 6.42873 21.875 5.81854 21.2648C5.20834 20.6546 5.20834 19.6725 5.20834 17.7083V13.2913Z" stroke="#414141"/>
<path d="M15.1042 21.875V16.625C15.1042 16.0727 14.6565 15.625 14.1042 15.625H10.8958C10.3436 15.625 9.89584 16.0727 9.89584 16.625V21.875" stroke="#414141" stroke-linecap="round" stroke-linejoin="round"/>
</svg>