<svg xmlns="http://www.w3.org/2000/svg" xmlns:xlink="http://www.w3.org/1999/xlink" xmlns:svgjs="http://svgjs.com/svgjs" version="1.1" width="512" height="512" x="0" y="0" viewBox="0 0 64 64" style="enable-background:new 0 0 512 512" xml:space="preserve" class=""><g><path d="M6 49V15a9.011 9.011 0 0 1 9-9h34a9.011 9.011 0 0 1 9 9v23a1 1 0 0 1-2 0V15a7.008 7.008 0 0 0-7-7H15a7.008 7.008 0 0 0-7 7v34a7.008 7.008 0 0 0 7 7h23a1 1 0 0 1 0 2H15a9.011 9.011 0 0 1-9-9zm16-17a4 4 0 1 1-4-4 4 4 0 0 1 4 4zm-2 0a2 2 0 1 0-2 2 2 2 0 0 0 2-2zm30 0a1 1 0 0 0-1-1H27a1 1 0 0 0 0 2h22a1 1 0 0 0 1-1zM22 18a4 4 0 1 1-4-4 4 4 0 0 1 4 4zm-2 0a2 2 0 1 0-2 2 2 2 0 0 0 2-2zm29-1H27a1 1 0 0 0 0 2h22a1 1 0 0 0 0-2zM22 46a4 4 0 1 1-4-4 4 4 0 0 1 4 4zm-2 0a2 2 0 1 0-2 2 2 2 0 0 0 2-2zm7-1a1 1 0 0 0 0 2h9a1 1 0 0 0 0-2zm33 5a10 10 0 1 1-10-10 10.011 10.011 0 0 1 10 10zm-2 0a8 8 0 1 0-8 8 8.009 8.009 0 0 0 8-8zm-4-1h-3v-3a1 1 0 0 0-2 0v3h-3a1 1 0 0 0 0 2h3v3a1 1 0 0 0 2 0v-3h3a1 1 0 0 0 0-2z" fill="#000000" data-original="#000000" class=""/></g></svg>